<?xml version="1.0" standalone="no"?>
<!DOCTYPE svg PUBLIC "-//W3C//DTD SVG 20010904//EN"
 "http://www.w3.org/TR/2001/REC-SVG-20010904/DTD/svg10.dtd">
<svg version="1.0" xmlns="http://www.w3.org/2000/svg"
 width="225.000000pt" height="225.000000pt" viewBox="0 0 225.000000 225.000000"
 preserveAspectRatio="xMidYMid meet">

<g transform="translate(0.000000,225.000000) scale(0.100000,-0.100000)"
fill="#000000" stroke="none">
<path d="M245 1275 l0 -375 214 0 c232 0 269 6 325 51 100 83 101 267 2 329
l-34 20 38 38 c65 64 64 173 -1 247 -49 55 -99 65 -338 65 l-206 0 0 -375z
m419 224 c19 -15 26 -30 26 -55 0 -78 -34 -94 -191 -94 l-109 0 0 85 0 85 124
0 c110 0 126 -2 150 -21z m-5 -284 c57 -29 65 -119 15 -166 -24 -22 -34 -24
-155 -28 l-129 -3 0 106 0 106 120 0 c86 0 129 -4 149 -15z"/>
<path d="M960 1575 l0 -75 75 0 75 0 0 75 0 75 -75 0 -75 0 0 -75z"/>
<path d="M1485 1637 c-96 -32 -160 -78 -209 -150 -131 -194 -59 -456 152 -555
50 -24 70 -27 158 -27 86 0 108 4 153 24 l52 25 -57 57 c-50 51 -60 56 -81 48
-13 -5 -45 -9 -71 -9 -157 1 -265 168 -201 310 41 90 108 134 204 134 95 0
175 -53 212 -141 15 -37 17 -111 4 -146 -8 -21 -3 -31 48 -81 l58 -57 24 53
c20 45 24 69 24 153 0 89 -3 106 -27 155 -43 87 -90 135 -174 176 -63 32 -87
38 -152 41 -46 2 -93 -2 -117 -10z"/>
<path d="M960 1150 l0 -250 75 0 75 0 0 250 0 250 -75 0 -75 0 0 -250z"/>
<path d="M1854 1004 l-52 -53 48 -51 c27 -27 55 -50 62 -50 16 0 98 81 98 96
0 5 -24 32 -52 60 l-53 50 -51 -52z"/>
<path d="M513 800 c-29 -12 -43 -40 -43 -89 0 -51 27 -81 73 -81 18 0 38 5 45
12 9 9 12 9 12 0 0 -7 5 -12 10 -12 6 0 10 20 10 45 0 43 -1 45 -30 45 -16 0
-30 -4 -30 -10 0 -5 7 -10 15 -10 18 0 20 -21 3 -38 -45 -45 -101 37 -68 99
13 23 52 25 70 4 7 -8 19 -15 26 -15 26 0 12 30 -23 49 -25 13 -40 13 -70 1z"/>
<path d="M1034 787 c-24 -21 -29 -33 -29 -72 0 -59 29 -88 86 -84 21 2 41 0
45 -4 15 -15 22 -6 24 31 0 20 2 52 2 70 2 40 -24 69 -68 78 -24 4 -37 0 -60
-19z m84 -19 c10 -13 15 -39 13 -71 -1 -11 -8 -17 -18 -15 -12 2 -17 -3 -15
-14 7 -41 -54 -10 -63 32 -12 57 50 108 83 68z"/>
<path d="M240 715 l0 -85 51 0 c66 0 89 13 89 50 0 16 -5 32 -10 35 -8 5 -7
11 1 21 9 11 9 21 1 39 -10 23 -17 25 -72 25 l-60 0 0 -85z m99 56 c25 -16 4
-41 -34 -41 -27 0 -35 4 -35 18 0 10 3 22 7 25 9 10 45 8 62 -2z m6 -86 c0
-16 -8 -21 -37 -23 -35 -3 -38 -1 -38 23 0 24 3 26 38 23 29 -2 37 -7 37 -23z"/>
<path d="M410 715 c0 -69 3 -85 15 -85 12 0 15 16 15 85 0 69 -3 85 -15 85
-12 0 -15 -16 -15 -85z"/>
<path d="M715 715 c0 -74 2 -85 18 -85 15 0 17 11 17 85 0 74 -2 85 -17 85
-16 0 -18 -11 -18 -85z"/>
<path d="M780 715 c0 -69 3 -85 15 -85 12 0 15 14 15 63 l1 62 35 -62 c24 -43
42 -63 55 -63 17 0 19 8 19 85 0 68 -3 85 -15 85 -10 0 -15 -16 -17 -62 l-3
-63 -35 62 c-22 40 -42 63 -52 63 -16 0 -18 -11 -18 -85z"/>
<path d="M1190 737 c0 -81 17 -107 70 -107 53 0 70 26 70 107 0 49 -3 63 -15
63 -12 0 -15 -13 -15 -56 0 -64 -13 -94 -40 -94 -27 0 -40 30 -40 94 0 43 -3
56 -15 56 -12 0 -15 -14 -15 -63z"/>
<path d="M1410 798 c0 -2 -13 -41 -30 -86 -28 -76 -28 -82 -11 -82 10 0 21 9
24 20 4 15 14 20 37 20 23 0 33 -5 37 -20 3 -11 13 -20 23 -20 17 0 17 6 -9
83 -22 66 -32 83 -49 85 -12 2 -22 2 -22 0z m34 -60 c10 -38 7 -48 -14 -48
-11 0 -20 6 -20 13 0 23 12 57 20 57 4 0 10 -10 14 -22z"/>
<path d="M1530 715 l0 -85 60 0 c47 0 60 3 60 15 0 11 -12 15 -45 15 l-45 0 0
70 c0 56 -3 70 -15 70 -12 0 -15 -16 -15 -85z"/>
<path d="M1670 715 c0 -69 3 -85 15 -85 12 0 15 16 15 85 0 69 -3 85 -15 85
-12 0 -15 -16 -15 -85z"/>
<path d="M1720 790 c0 -5 11 -10 25 -10 24 0 25 -2 25 -75 0 -59 3 -75 15 -75
11 0 15 17 17 73 3 70 4 72 31 75 55 7 25 22 -43 22 -40 0 -70 -4 -70 -10z"/>
<path d="M1870 796 c0 -2 11 -24 25 -47 14 -25 25 -60 25 -81 0 -31 4 -38 20
-38 17 0 20 6 19 33 -2 18 9 54 24 85 26 49 26 52 8 52 -13 0 -24 -11 -32 -35
-7 -19 -16 -35 -19 -35 -4 0 -14 16 -23 35 -9 19 -23 35 -32 35 -8 0 -15 -2
-15 -4z"/>
</g>
</svg>
