<?xml version="1.0" standalone="no"?>
<!DOCTYPE svg PUBLIC "-//W3C//DTD SVG 20010904//EN"
 "http://www.w3.org/TR/2001/REC-SVG-20010904/DTD/svg10.dtd">
<svg version="1.0" xmlns="http://www.w3.org/2000/svg"
 width="1500.000000pt" height="1500.000000pt" viewBox="0 0 1500.000000 1500.000000"
 preserveAspectRatio="xMidYMid meet">

<g transform="translate(0.000000,1500.000000) scale(0.100000,-0.100000)"
fill="#000000" stroke="none">
<path d="M0 7500 l0 -7500 7500 0 7500 0 0 7500 0 7500 -7500 0 -7500 0 0
-7500z m9608 2442 c300 -66 516 -182 722 -391 131 -131 230 -268 230 -317 0
-17 -8 -38 -17 -47 -25 -22 -472 -237 -494 -237 -33 0 -49 12 -93 74 -110 153
-267 263 -463 323 -78 23 -105 26 -233 27 -159 0 -228 -12 -356 -64 -225 -90
-423 -292 -517 -528 -104 -261 -104 -593 0 -854 115 -287 360 -501 659 -575
99 -24 326 -24 417 1 208 55 377 169 493 332 45 62 59 74 95 74 31 0 462 -210
487 -237 34 -38 28 -64 -40 -155 -258 -343 -605 -561 -985 -617 -104 -16 -345
-13 -474 5 -644 89 -1142 484 -1336 1059 -63 187 -78 292 -78 540 0 244 15
352 76 537 173 530 612 918 1179 1042 134 30 202 35 420 31 169 -2 235 -7 308
-23z m-4983 -37 c214 -54 375 -203 458 -422 21 -57 21 -70 27 -813 7 -811 7
-813 61 -941 34 -82 104 -183 162 -234 62 -55 186 -117 279 -139 155 -38 364
-30 507 19 243 82 395 289 426 579 6 53 13 75 31 93 23 23 23 23 314 23 l291
0 26 -26 c25 -25 25 -28 19 -112 -49 -634 -388 -1031 -989 -1158 -164 -35
-498 -44 -683 -20 -623 82 -992 421 -1101 1011 -15 79 -17 210 -20 1102 -3
714 -1 1018 7 1033 9 16 21 20 68 20 32 0 85 -7 117 -15z m2590 -1 c15 -15 16
-53 13 -373 -4 -354 -4 -356 -31 -436 -63 -190 -182 -325 -362 -411 -67 -33
-194 -64 -256 -64 l-29 0 0 628 c0 552 2 630 16 650 15 22 16 22 324 22 273 0
310 -2 325 -16z m2081 -1329 c57 -17 115 -70 139 -127 21 -52 19 -153 -4 -203
-69 -148 -258 -172 -351 -44 -41 57 -57 134 -41 203 23 104 89 165 202 185 3
1 28 -6 55 -14z m-2653 -2532 c73 -23 140 -81 176 -154 17 -34 31 -68 31 -75
0 -24 -37 -34 -121 -34 l-83 0 -42 48 c-39 44 -44 47 -92 47 -42 0 -56 -5 -80
-28 -67 -64 -68 -213 -2 -279 23 -23 37 -28 77 -28 55 0 86 17 108 61 l16 29
98 0 c119 0 128 -6 105 -73 -21 -63 -93 -140 -161 -173 -104 -51 -263 -42
-363 21 -152 96 -197 349 -90 515 81 126 256 177 423 123z m825 -5 c23 -11 56
-36 72 -56 l30 -37 0 46 c0 25 5 50 12 57 19 19 173 16 192 -4 14 -13 16 -58
16 -338 0 -265 -3 -326 -14 -335 -9 -8 -47 -11 -107 -9 l-94 3 -5 50 -5 50
-19 -28 c-10 -15 -40 -40 -65 -55 -40 -24 -57 -27 -131 -27 -76 0 -91 3 -139
30 -110 61 -167 187 -159 349 6 105 32 175 88 240 79 89 217 116 328 64z
m-2917 0 c70 -39 73 -51 79 -255 5 -164 7 -184 26 -210 41 -56 147 -56 188 0
20 26 21 43 24 245 2 134 7 221 14 229 15 19 162 18 177 -1 9 -11 11 -78 9
-248 -3 -221 -4 -236 -27 -286 -30 -67 -98 -127 -164 -147 -28 -8 -85 -15
-127 -15 -42 0 -99 7 -127 15 -66 20 -134 80 -164 147 -22 50 -24 67 -27 280
-3 154 0 233 8 247 14 28 61 27 111 -1z m917 10 c7 -7 12 -32 12 -56 l0 -43
34 35 c49 52 107 76 192 76 120 0 201 -56 244 -170 14 -38 27 -459 16 -506 -7
-25 -7 -25 -109 -22 l-102 3 -5 215 c-3 145 -9 222 -17 237 -25 43 -63 63
-118 63 -55 0 -93 -20 -118 -63 -8 -15 -14 -92 -17 -237 l-5 -215 -99 -3 c-73
-2 -102 1 -108 10 -13 22 -10 662 4 676 7 7 44 12 98 12 54 0 91 -5 98 -12z
m2713 2 c15 -8 19 -22 19 -58 l0 -47 27 34 c40 50 113 81 196 81 79 0 128 -18
175 -63 76 -73 92 -145 92 -418 0 -156 -3 -199 -14 -208 -9 -8 -47 -11 -107
-9 l-94 3 -5 215 c-5 227 -8 241 -56 279 -37 29 -121 29 -158 0 -52 -41 -56
-62 -56 -276 0 -109 -4 -204 -8 -211 -6 -9 -35 -12 -108 -10 l-99 3 0 340 0
340 35 6 c58 10 140 10 161 -1z m903 -6 c9 -8 16 -32 16 -53 l0 -38 43 41 c50
48 100 66 186 66 75 0 124 -19 174 -68 67 -66 79 -115 85 -368 3 -160 1 -226
-7 -243 -11 -20 -18 -22 -109 -19 l-97 3 -5 215 c-5 227 -8 241 -56 279 -34
27 -113 28 -155 4 -53 -31 -59 -60 -59 -281 0 -159 -3 -202 -14 -211 -9 -8
-47 -11 -107 -9 l-94 3 -3 348 -2 347 94 0 c73 0 98 -4 110 -16z m934 4 c6 -7
45 -101 87 -208 42 -107 77 -196 79 -197 2 -2 34 81 71 184 37 104 74 198 81
211 13 20 22 22 103 22 102 0 121 -5 121 -31 0 -19 -395 -965 -413 -986 -15
-20 -213 -18 -221 2 -3 8 28 88 69 178 l75 163 -133 304 c-162 371 -149 336
-131 355 20 20 196 22 212 3z"/>
<path d="M7337 5852 c-60 -37 -86 -159 -49 -231 24 -48 62 -73 119 -78 65 -6
111 20 141 77 40 79 25 171 -37 223 -27 22 -42 27 -89 27 -36 0 -67 -7 -85
-18z"/>
</g>
</svg>
