<svg width="361" height="114" viewBox="0 0 361 114" fill="none" xmlns="http://www.w3.org/2000/svg">
<path d="M165.864 69.5501C168.534 69.5011 171.153 68.8154 173.504 67.5501C174.784 68.0901 175.504 70.1901 174.914 71.8801C174.914 71.8801 171.134 74.5801 164.574 74.5801C153.894 74.5801 148.894 67.9601 148.894 56.5801C148.894 45.2001 154.164 38.4601 165.114 38.4601C168.436 38.3985 171.732 39.0463 174.784 40.3601C175.394 42.3601 174.314 44.5501 173.164 45.0901C170.889 44.0532 168.424 43.5015 165.924 43.4701C159.304 43.4701 155.854 47.9301 155.854 56.4701C155.854 65.0101 159.234 69.5501 165.864 69.5501ZM207.584 66.4401C208.331 66.9261 208.882 67.6595 209.142 68.5117C209.402 69.3639 209.353 70.2803 209.004 71.1001C209.004 71.1001 204.674 74.5501 196.904 74.5501C186.284 74.5501 180.274 67.9901 180.274 56.5501C180.274 45.1101 186.354 38.4301 196.494 38.4301C206.634 38.4301 211.164 45.4301 211.164 55.6001V58.9601H187.224C187.564 65.3801 191.224 69.5701 197.294 69.5701C200.937 69.434 204.482 68.3556 207.584 66.4401ZM204.134 54.8801C204.134 48.5901 202.134 43.4601 195.954 43.4601C190.204 43.4601 187.234 47.7801 187.234 54.8801H204.134ZM248.674 37.5801C250.434 37.7801 251.724 39.4701 251.454 41.7701C249.869 42.8881 248.037 43.6052 246.114 43.8601C247.119 44.8537 247.906 46.0468 248.422 47.3626C248.939 48.6784 249.175 50.0878 249.114 51.5001C249.114 58.6701 242.894 64.3401 233.024 64.3401C230.755 64.372 228.495 64.0343 226.334 63.3401C224.574 64.0801 223.024 64.8901 223.024 66.7201C223.024 68.5501 224.844 69.3601 231.944 69.3601H237.354C245.864 69.3601 250.354 72.4701 250.464 78.8901C250.534 87.1301 242.214 91.4601 232.144 91.4601C222.074 91.4601 216.464 87.4601 216.464 82.0601C216.464 76.4501 221.194 74.3601 223.084 73.8201C220.244 73.4801 217.544 72.1301 217.544 68.3401C217.544 64.5501 221.334 62.5301 223.084 61.9201C219.504 59.7601 217.614 55.9201 217.614 51.4401C217.614 43.8001 224.034 38.4401 233.094 38.4401C238.564 38.4401 239.924 39.7301 242.754 39.7301C245.584 39.7301 248.664 37.5801 248.664 37.5801H248.674ZM232.244 86.5101C239.134 86.5101 243.534 84.3501 243.534 79.5101C243.534 74.9801 239.474 74.2401 235.534 74.2401H229.454C226.144 74.9801 222.454 76.5401 222.454 80.4601C222.454 84.3801 225.684 86.5101 232.244 86.5101ZM233.394 59.4101C238.464 59.4101 242.184 56.6401 242.184 51.4101C242.184 46.1801 238.664 43.4101 233.394 43.4101C228.124 43.4101 224.604 46.2501 224.604 51.4101C224.604 56.5701 228.124 59.4101 233.394 59.4101ZM283.074 66.4101C283.824 66.8933 284.378 67.6267 284.638 68.4799C284.898 69.3331 284.847 70.2509 284.494 71.0701C284.494 71.0701 280.174 74.5201 272.394 74.5201C261.784 74.5201 255.764 67.9601 255.764 56.5201C255.764 45.0801 261.854 38.4001 271.994 38.4001C282.134 38.4001 286.664 45.4001 286.664 55.5701V58.9601H262.734C263.064 65.3801 266.734 69.5701 272.804 69.5701C276.441 69.4342 279.98 68.3557 283.074 66.4401V66.4101ZM279.584 54.8801C279.584 48.5901 277.584 43.4601 271.414 43.4601C265.664 43.4601 262.694 47.7801 262.694 54.8801H279.584ZM324.334 73.6701C323.021 74.3356 321.554 74.6394 320.084 74.5501C318.735 74.6483 317.384 74.3932 316.164 73.8101L301.394 57.1801V73.4001C300.335 73.9482 299.142 74.1841 297.954 74.0801C296.741 74.1743 295.525 73.9394 294.434 73.4001V24.0601C295.497 23.5132 296.693 23.2775 297.884 23.3801C299.094 23.2866 300.307 23.5216 301.394 24.0601V56.0601L315.864 39.1601C317.02 38.5987 318.301 38.3406 319.584 38.4101C322.354 38.4101 323.294 39.2201 323.294 39.2201L308.904 56.1001L324.334 73.6701ZM332.794 46.6701C331.956 46.3465 331.262 45.7318 330.839 44.9385C330.417 44.1452 330.294 43.2263 330.494 42.3501C334.369 39.702 338.983 38.3506 343.674 38.4901C352.194 38.4901 357.194 42.3501 357.194 50.1901V68.1901C357.194 69.6701 357.594 70.3501 359.894 70.3501C360.249 70.9566 360.436 71.6472 360.434 72.3501C359.923 73.0297 359.26 73.5794 358.497 73.9547C357.734 74.33 356.894 74.5202 356.044 74.5101C354.914 74.5889 353.797 74.2349 352.918 73.5199C352.04 72.8049 351.466 71.7824 351.314 70.6601C348.674 73.2901 345.024 74.5101 340.694 74.5101C334.344 74.5101 328.394 70.7901 328.394 63.5101C328.394 58.2401 331.504 53.5101 342.594 53.5101C345.167 53.4727 347.735 53.7651 350.234 54.3801V50.7601C350.234 45.8201 347.864 43.5201 342.664 43.5201C339.145 43.5201 335.712 44.6062 332.834 46.6301L332.794 46.6701ZM335.354 63.3701C335.354 66.9501 337.924 69.5901 343.134 69.5901C344.451 69.5997 345.757 69.3474 346.976 68.8478C348.195 68.3482 349.302 67.6114 350.234 66.6801V58.4601C348.137 57.8935 345.976 57.5978 343.804 57.5801C337.424 57.5801 335.394 60.1501 335.394 63.3301L335.354 63.3701Z" fill="#4D555B"/>
<path d="M115.544 9.61664C115.594 10.6166 115.614 11.4866 115.614 12.4766C115.534 44.0466 87.554 77.3066 53.124 86.7566C30.674 92.9166 11.024 87.4366 0.124023 74.1066C1.72402 103.847 28.884 120.377 62.224 111.227C96.654 101.777 124.624 68.5166 124.714 36.9466C124.714 25.9766 121.364 16.7166 115.544 9.61664Z" fill="#4C9FCE"/>
<path d="M115.544 9.61663C110.374 3.72663 102.484 0.356628 93.174 0.356628C89.5497 0.374466 85.9418 0.84477 82.434 1.75663C59.844 7.50663 40.874 29.6766 40.814 50.3866C40.8102 52.209 40.9574 54.0286 41.254 55.8266C41.2839 56.0308 41.3905 56.2159 41.5522 56.3442C41.7139 56.4724 41.9184 56.5341 42.124 56.5166C42.4581 56.5008 42.7804 56.3884 43.0519 56.1932C43.3235 55.998 43.5326 55.7282 43.654 55.4166C49.564 39.8866 64.334 25.9566 81.594 21.2266C85.3868 20.1625 89.3049 19.6109 93.244 19.5866C101.484 19.5866 108.604 22.2166 113.714 26.9066C114.945 22.1944 115.583 17.3469 115.614 12.4766C115.614 11.5166 115.594 10.5566 115.544 9.61663Z" fill="#8DD4E0"/>
<path d="M124.684 36.7667V36.4567V36.4067V36.3567V36.2967C124.753 27.8241 122.318 19.5199 117.684 12.4267L117.614 12.3167L117.444 12.0667C116.869 11.224 116.244 10.4159 115.574 9.64667C115.624 10.5867 115.644 11.5467 115.644 12.5067C115.613 17.377 114.975 22.2244 113.744 26.9367C117.004 29.9239 119.419 33.7182 120.744 37.9367C121.7 40.9914 122.175 44.176 122.154 47.3767C122.095 52.0838 121.211 56.7442 119.544 61.1467C122.765 53.712 124.524 45.7266 124.724 37.6267V37.5467V37.2567V36.9967L124.684 36.7667Z" fill="#0098C3"/>
<path d="M33.8841 12.3066C33.1483 12.3325 32.4431 12.6076 31.8841 13.0866C11.8841 28.8166 -1.02594 52.3266 0.0640619 74.0866C6.15406 81.4966 14.9341 86.4866 25.3941 88.3966C20.4534 82.0549 17.4714 74.4088 16.8141 66.3966C15.1641 49.3366 22.3241 30.9566 34.9841 15.8966C36.4641 14.0666 35.5141 12.3066 33.8841 12.3066Z" fill="#F04B4C"/>
<path d="M64.2641 106.807C50.0441 106.807 37.9541 101.467 29.4341 92.7266C27.9942 91.3927 26.6571 89.9519 25.4341 88.4166C14.9841 86.5066 6.18412 81.5166 0.0941162 74.1066C0.0941162 74.8766 0.194116 75.6366 0.264116 76.3966C2.56412 99.2666 20.3941 113.747 44.2641 113.747C50.313 113.706 56.3294 112.859 62.1541 111.227C64.0074 110.713 65.8341 110.14 67.6341 109.507C70.8862 108.346 74.0653 106.99 77.1541 105.447C72.9168 106.349 68.5965 106.805 64.2641 106.807Z" fill="#69266F"/>
</svg>
